<?xml version="1.0" encoding="utf-8"?>
<!-- Generator: Adobe Illustrator 25.0.1, SVG Export Plug-In . SVG Version: 6.00 Build 0)  -->
<svg version="1.1" id="圖層_1" xmlns="http://www.w3.org/2000/svg" xmlns:xlink="http://www.w3.org/1999/xlink" x="0px" y="0px"
	 viewBox="0 0 525 525" style="enable-background:new 0 0 525 525;" xml:space="preserve">
<g>
	<path d="M262.5,0C192.9,0,126.1,27.7,76.9,76.9C27.7,126.1,0,192.9,0,262.5s27.7,136.4,76.9,185.6c49.2,49.2,116,76.9,185.6,76.9
		s136.4-27.7,185.6-76.9c49.2-49.2,76.9-116,76.9-185.6c0-46.1-12.1-91.3-35.2-131.2s-56.2-73-96.1-96.1S308.6,0,262.5,0L262.5,0z
		 M262.5,490c-60.3,0-118.2-24-160.9-66.6C59,380.7,35,322.8,35,262.5s24-118.2,66.6-160.9C144.3,59,202.2,35,262.5,35
		s118.2,24,160.9,66.6C466,144.3,490,202.2,490,262.5s-24,118.2-66.6,160.9C380.7,466,322.8,490,262.5,490z"/>
	<path d="M280,254.5V87.5c0-6.3-3.3-12-8.8-15.2s-12.1-3.1-17.5,0s-8.8,8.9-8.8,15.2v175c0,5.1,2.2,10,6.1,13.3l122.5,105
		c4.8,4.1,11.3,5.3,17.2,3.2c5.9-2.1,10.2-7.2,11.4-13.3c1.1-6.1-1.1-12.4-5.8-16.5L280,254.5z"/>
</g>
</svg>
