<?xml version="1.0" encoding="utf-8"?>
<!-- Generator: Adobe Illustrator 25.0.1, SVG Export Plug-In . SVG Version: 6.00 Build 0)  -->
<svg version="1.1" id="圖層_1" xmlns="http://www.w3.org/2000/svg" xmlns:xlink="http://www.w3.org/1999/xlink" x="0px" y="0px"
	 viewBox="0 0 401.5 457.5" style="enable-background:new 0 0 401.5 457.5;" xml:space="preserve">
<g>
	<path d="M0,0v457.5h401.5V87.9L314.2,0L0,0z M317.5,19l66.6,66.6h-66.6V19z M11.2,445.8V11.2h295.1v85.7h84.6v348.9H11.2z"/>
	<path d="M131,206.1c-3.4-2.2-7.3-3.9-12.3-4.5c-3.4-0.6-8.4-1.1-15.1-1.1H65.5v100.8H79v-40.9h25.8c14,0,24.1-2.8,29.7-9
		c5.6-6.2,8.4-13.4,8.4-21.8c0-5-1.1-9.5-2.8-14C136.6,211.1,133.8,208.3,131,206.1L131,206.1z M122.6,243c-3.4,3.4-9.5,5-18.5,5
		H77.8v-35.8h25.8c6.2,0,10.1,0.6,12.3,1.1c3.4,1.1,6.2,2.8,8.4,6.2c2.2,3.4,3.4,6.7,3.4,10.6C128.2,235.8,126.6,240.2,122.6,243
		L122.6,243z"/>
	<path d="M232.4,208.9c-3.9-3.4-9-6.2-14.6-7.3c-3.9-1.1-10.1-1.7-17.9-1.7h-34.7v100.8h36.4c6.2,0,11.8-0.6,16.2-1.7
		c4.5-1.1,9-2.8,11.8-5c3.4-2.2,6.2-5,9-9s5-9,6.7-14.6c1.7-6.2,2.8-12.9,2.8-20.2c0-9-1.1-16.8-3.9-24.1
		C241.4,219,238,213.4,232.4,208.9L232.4,208.9z M231.8,269.4c-1.7,5.6-4.5,9.5-7.3,12.9c-2.2,2.2-5,3.9-9,5
		c-3.9,1.1-9,1.7-15.7,1.7h-21.3l0-76.7h21.3c7.8,0,13.4,0.6,17.4,2.2c5,1.7,9,5.6,12.9,11.2c3.4,5.6,5,14,5,24.1
		C234.6,257.6,233.5,263.8,231.8,269.4L231.8,269.4z"/>
	<path d="M273.3,300.7h13.4v-45.4h47.6V243h-47.6v-30.8h54.9v-12.3h-68.3V300.7z"/>
</g>
</svg>
