<?xml version="1.0" encoding="utf-8"?>
<!-- Generator: Adobe Illustrator 25.0.1, SVG Export Plug-In . SVG Version: 6.00 Build 0)  -->
<svg version="1.1" id="圖層_1" xmlns="http://www.w3.org/2000/svg" xmlns:xlink="http://www.w3.org/1999/xlink" x="0px" y="0px"
	 viewBox="0 0 540 540" style="enable-background:new 0 0 540 540;" xml:space="preserve">
<g>
	<path d="M506.8,74c-4.2-4.2-9.9-6.6-15.8-6.6s-11.6,2.4-15.8,6.6L267,282.1l-73.8-73.8c-5.7-5.7-13.9-7.9-21.6-5.8
		c-7.7,2.1-13.8,8.1-15.8,15.8c-2.1,7.7,0.1,16,5.8,21.6l89.6,89.6c4.2,4.2,9.9,6.6,15.8,6.6s11.6-2.4,15.8-6.6l224-224
		c4.2-4.2,6.6-9.9,6.6-15.8C513.4,83.9,511.1,78.2,506.8,74L506.8,74z"/>
	<path d="M508.5,219.6c-1.6-7.8-7.3-14.2-14.9-16.8c-7.6-2.5-16-0.8-22,4.5c-6,5.3-8.7,13.4-7.1,21.2c9.2,45.1,2.8,91.9-18.3,132.8
		c-21.1,40.9-55.5,73.3-97.6,92s-89.2,22.3-133.7,10.4c-44.4-11.9-83.5-38.6-110.6-75.7c-27.2-37.1-40.8-82.4-38.7-128.4
		c2.1-46,19.9-89.8,50.4-124.2C146.6,100.9,188,78,233.3,70.3c45.4-7.7,92,0.3,132.1,22.8c7,3.9,15.6,3.8,22.5-0.3
		c6.9-4.1,11.1-11.6,11-19.6c-0.1-8-4.5-15.4-11.5-19.3c-47.2-26.4-101.8-36.6-155.3-28.9c-53.5,7.7-103.1,32.7-141,71.4
		c-37.9,38.6-62,88.6-68.6,142.3c-6.6,53.7,4.6,108.1,31.9,154.8c27.3,46.7,69.3,83.1,119.4,103.5c50.1,20.5,105.5,23.9,157.7,9.8
		c52.2-14.1,98.3-45.1,131.2-88c32.9-43,50.7-95.5,50.8-149.6C513.4,252.4,511.7,235.9,508.5,219.6L508.5,219.6z"/>
	<g>
		<defs>
			<line id="SVGID_1_" x1="772.6" y1="1333" x2="72.6" y2="1333"/>
		</defs>
		<clipPath id="SVGID_2_">
			<use xlink:href="#SVGID_1_"  style="overflow:visible;"/>
		</clipPath>
	</g>
	<g>
		<defs>
			<line id="SVGID_3_" x1="892.4" y1="1333" x2="192.4" y2="1333"/>
		</defs>
		<clipPath id="SVGID_4_">
			<use xlink:href="#SVGID_3_"  style="overflow:visible;"/>
		</clipPath>
	</g>
	<g>
		<defs>
			<line id="SVGID_5_" x1="906.2" y1="1333" x2="206.2" y2="1333"/>
		</defs>
		<clipPath id="SVGID_6_">
			<use xlink:href="#SVGID_5_"  style="overflow:visible;"/>
		</clipPath>
	</g>
	<g>
		<defs>
			<line id="SVGID_7_" x1="964.5" y1="1333" x2="264.5" y2="1333"/>
		</defs>
		<clipPath id="SVGID_8_">
			<use xlink:href="#SVGID_7_"  style="overflow:visible;"/>
		</clipPath>
	</g>
	<g>
		<defs>
			<line id="SVGID_9_" x1="988.1" y1="1333" x2="288.1" y2="1333"/>
		</defs>
		<clipPath id="SVGID_10_">
			<use xlink:href="#SVGID_9_"  style="overflow:visible;"/>
		</clipPath>
	</g>
	<g>
		<defs>
			<line id="SVGID_11_" x1="1008.6" y1="1333" x2="308.6" y2="1333"/>
		</defs>
		<clipPath id="SVGID_12_">
			<use xlink:href="#SVGID_11_"  style="overflow:visible;"/>
		</clipPath>
	</g>
	<g>
		<defs>
			<line id="SVGID_13_" x1="1022.4" y1="1333" x2="322.4" y2="1333"/>
		</defs>
		<clipPath id="SVGID_14_">
			<use xlink:href="#SVGID_13_"  style="overflow:visible;"/>
		</clipPath>
	</g>
	<g>
		<defs>
			<line id="SVGID_15_" x1="1078" y1="1333" x2="378" y2="1333"/>
		</defs>
		<clipPath id="SVGID_16_">
			<use xlink:href="#SVGID_15_"  style="overflow:visible;"/>
		</clipPath>
	</g>
	<g>
		<defs>
			<line id="SVGID_17_" x1="1096.9" y1="1333" x2="396.9" y2="1333"/>
		</defs>
		<clipPath id="SVGID_18_">
			<use xlink:href="#SVGID_17_"  style="overflow:visible;"/>
		</clipPath>
	</g>
	<g>
		<defs>
			<line id="SVGID_19_" x1="699.2" y1="1361" x2="-0.8" y2="1361"/>
		</defs>
		<clipPath id="SVGID_20_">
			<use xlink:href="#SVGID_19_"  style="overflow:visible;"/>
		</clipPath>
	</g>
	<g>
		<defs>
			<line id="SVGID_21_" x1="713" y1="1361" x2="13" y2="1361"/>
		</defs>
		<clipPath id="SVGID_22_">
			<use xlink:href="#SVGID_21_"  style="overflow:visible;"/>
		</clipPath>
	</g>
	<g>
		<defs>
			<line id="SVGID_23_" x1="771.2" y1="1361" x2="71.2" y2="1361"/>
		</defs>
		<clipPath id="SVGID_24_">
			<use xlink:href="#SVGID_23_"  style="overflow:visible;"/>
		</clipPath>
	</g>
	<g>
		<defs>
			<line id="SVGID_25_" x1="804.5" y1="1361" x2="104.5" y2="1361"/>
		</defs>
		<clipPath id="SVGID_26_">
			<use xlink:href="#SVGID_25_"  style="overflow:visible;"/>
		</clipPath>
	</g>
	<g>
		<defs>
			<line id="SVGID_27_" x1="856.6" y1="1361" x2="156.6" y2="1361"/>
		</defs>
		<clipPath id="SVGID_28_">
			<use xlink:href="#SVGID_27_"  style="overflow:visible;"/>
		</clipPath>
	</g>
	<g>
		<defs>
			<line id="SVGID_29_" x1="895.8" y1="1361" x2="195.8" y2="1361"/>
		</defs>
		<clipPath id="SVGID_30_">
			<use xlink:href="#SVGID_29_"  style="overflow:visible;"/>
		</clipPath>
	</g>
	<g>
		<defs>
			<line id="SVGID_31_" x1="946" y1="1361" x2="246" y2="1361"/>
		</defs>
		<clipPath id="SVGID_32_">
			<use xlink:href="#SVGID_31_"  style="overflow:visible;"/>
		</clipPath>
	</g>
	<g>
		<defs>
			<line id="SVGID_33_" x1="959.8" y1="1361" x2="259.8" y2="1361"/>
		</defs>
		<clipPath id="SVGID_34_">
			<use xlink:href="#SVGID_33_"  style="overflow:visible;"/>
		</clipPath>
	</g>
	<g>
		<defs>
			<line id="SVGID_35_" x1="988.7" y1="1361" x2="288.7" y2="1361"/>
		</defs>
		<clipPath id="SVGID_36_">
			<use xlink:href="#SVGID_35_"  style="overflow:visible;"/>
		</clipPath>
	</g>
	<g>
		<defs>
			<line id="SVGID_37_" x1="1024.2" y1="1361" x2="324.2" y2="1361"/>
		</defs>
		<clipPath id="SVGID_38_">
			<use xlink:href="#SVGID_37_"  style="overflow:visible;"/>
		</clipPath>
	</g>
</g>
</svg>
